<svg t="1707119843321" class="icon" viewBox="0 0 1024 1024" version="1.1" xmlns="http://www.w3.org/2000/svg"
     p-id="20914" data-spm-anchor-id="a313x.search_index.0.i7.60a23a81iz40mk" width="300" height="300">
    <path d="M738.133333 644.266667m-40.533333 0a1.9 1.9 0 1 0 81.066667 0 1.9 1.9 0 1 0-81.066667 0Z" p-id="20915"
          fill="#1296db"></path>
    <path d="M285.866667 644.266667m-40.533333 0a1.9 1.9 0 1 0 81.066667 0 1.9 1.9 0 1 0-81.066667 0Z" p-id="20916"
          fill="#1296db"></path>
    <path d="M977.066667 298.666667 595.2 298.666667c-42.666667 0-74.666667-34.133333-74.666667-74.666667 0-42.666667 34.133333-74.666667 74.666667-74.666667 17.066667 0 49.066667 8.533333 61.866667 36.266667 4.266667 10.666667 0 23.466667-10.666667 27.733333S622.933333 213.333333 618.666667 202.666667C614.4 194.133333 599.466667 192 595.2 192c-17.066667 0-32 14.933333-32 32S576 256 595.2 256l360.533333 0C866.133333 102.4 701.866667 0 512 0S157.866667 102.4 68.266667 256l360.533333 0c19.2 0 32-14.933333 32-32S448 189.866667 428.8 189.866667c-4.266667 0-19.2 2.133333-21.333333 10.666667-4.266667 10.666667-17.066667 14.933333-27.733333 10.666667-10.666667-4.266667-14.933333-17.066667-10.666667-27.733333 12.8-27.733333 44.8-36.266667 59.733333-36.266667 42.666667 0 76.8 34.133333 76.8 74.666667 0 42.666667-34.133333 74.666667-74.666667 74.666667l-384 0C17.066667 362.666667 0 435.2 0 512c0 281.6 230.4 512 512 512s512-230.4 512-512C1024 435.2 1006.933333 362.666667 977.066667 298.666667zM512 994.133333c-238.933333 0-430.933333-164.266667-473.6-390.4L38.4 597.333333c0 0 0 6.4 0 6.4L38.4 597.333333c0-121.6 117.333333-211.2 273.066667-211.2 78.933333 0 149.333333 25.6 200.533333 66.133333 51.2-40.533333 121.6-66.133333 200.533333-66.133333 155.733333 0 273.066667 89.6 273.066667 211.2l0 4.266667c0-2.133333 0 0 0 0l0 4.266667C942.933333 829.866667 750.933333 994.133333 512 994.133333z"
          p-id="20917" fill="#1296db"></path>
</svg>