<?xml version="1.0" encoding="UTF-8" standalone="no"?>
<!DOCTYPE svg PUBLIC "-//W3C//DTD SVG 1.1//EN" "http://www.w3.org/Graphics/SVG/1.1/DTD/svg11.dtd">
<svg width="100%" height="100%" viewBox="0 0 40 40" version="1.1" xmlns="http://www.w3.org/2000/svg" xmlns:xlink="http://www.w3.org/1999/xlink" xml:space="preserve" style="fill-rule:evenodd;clip-rule:evenodd;stroke-linejoin:round;stroke-miterlimit:2;">
    <g id="paper-plane.svg" transform="matrix(0.0722656,0,0,0.0722656,19.5143,20.1871)">
        <g transform="matrix(1,0,0,1,-256,-256)">
            <clipPath id="_clip1">
                <rect x="0" y="0" width="512" height="512"/>
            </clipPath>
            <g clip-path="url(#_clip1)">
                <path d="M498.1,5.6C508.2,12.6 513.5,24.7 511.6,36.8L447.6,452.8C446.1,462.5 440.2,471 431.6,475.8C423,480.6 412.7,481.2 403.6,477.4L284,427.7L215.5,501.8C206.6,511.5 192.6,514.7 180.3,509.9C168,505.1 160,493.2 160,480L160,396.4C160,392.4 161.5,388.6 164.2,385.7L331.8,202.8C337.6,196.5 337.4,186.8 331.4,180.8C325.4,174.8 315.7,174.4 309.4,180.1L106,360.8L17.7,316.6C7.1,311.3 0.3,300.7 0,288.9C-0.3,277.1 5.9,266.1 16.1,260.2L464.1,4.2C474.8,-1.9 488,-1.3 498.1,5.6Z" style="fill:url(#_Linear2);fill-rule:nonzero;"/>
            </g>
        </g>
    </g>
    <defs>
        <linearGradient id="_Linear2" x1="0" y1="0" x2="1" y2="0" gradientUnits="userSpaceOnUse" gradientTransform="matrix(248.502,-438.456,438.554,248.557,196.506,494.261)"><stop offset="0" style="stop-color:rgb(230,0,234);stop-opacity:1"/><stop offset="1" style="stop-color:rgb(0,218,230);stop-opacity:1"/></linearGradient>
    </defs>
</svg>
